<svg width="793" height="517" viewBox="0 0 793 517" fill="none" xmlns="http://www.w3.org/2000/svg">
<g clip-path="url(#clip0_356_2)">
<path d="M134.41 7.12984L131.01 13.5498L130.01 16.9798L129.4 20.7998L131.42 23.6198L132.42 26.6398L130.61 29.2598L127.79 34.4898L126.38 36.6998L128.6 35.6998L130.21 33.6798L131.62 32.6798L135.44 33.2798L137.86 33.8798L138.06 37.1098L135.24 37.5098L135.04 45.7598L133.03 44.7498L131.22 45.1598L129.4 47.1698L130.01 49.5898L133.23 52.1998L136.25 54.0098L135.24 57.2398V61.2598L133.83 64.2798L131.01 65.2898L129.2 64.2798L128 61.4598H126.38V64.8798L127.59 66.4898L127.79 72.7298L128.2 76.7598L131.22 78.5698L133.43 76.1598L135.85 71.9298L137.66 67.8998L140.07 66.4898L143.09 68.0998L145.51 67.2998L144.7 64.4798L143.49 61.8598L142.69 57.2398L143.29 54.6198L144.7 53.2098L146.51 53.0098H148.73L149.73 48.7798L152.55 42.7398L155.77 37.3098L157.79 31.4698L157.43 23.7398L214.21 64.7298L210.32 65.0898L211.33 67.0998L212.94 68.5098L213.95 69.9198L213.14 73.7398L210.32 78.7698L205.69 83.3998L199.45 88.4398L197.84 91.8598L198.85 93.6698L197.64 95.4798H194.22L193.62 98.0998L186.57 100.92L181.74 102.53L176.71 103.53L173.08 102.32L171.07 102.93L167.25 103.73L166.04 102.73L163.62 101.32L160 103.53L155.57 103.33L149.53 102.73L146.51 102.32L143.9 100.11L138.66 99.3098L136.85 97.4898L134.64 96.4898L133.63 92.8598L136.45 91.0498L138.26 88.8398L137.46 85.2098L135.85 84.2098L133.23 85.4198L128.2 87.0298L126.38 87.8298L123.97 87.6298L122.36 88.0298L121.35 90.0498L119.34 89.4398L116.72 87.4298L113.7 87.2298L109.68 85.6198L106.66 84.2098L104.44 81.5898L102.23 76.3598L101.83 71.1198L104.85 62.6698L105.25 60.0498L103.24 56.4298L102.03 53.6098L101.83 47.5698L102.23 42.9398L104.24 37.5098L107.26 32.6798L108.47 27.0398L111.09 24.4198L111.29 18.5898L113.3 15.3698L117.13 11.9398L117.33 7.10984L118.94 3.88984L119.11 0.339844" fill="white"/>
<path d="M676.69 291.56L675.18 289.79L673.98 289.27L674.25 288.9L673.52 289.45L673.25 289.93L673.44 290.6L674.45 290.63L675.67 291.53L678.85 295.84L679.05 295.49L678.41 293.91L677.64 292.93L676.69 291.56Z" fill="white"/>
<path d="M750.33 320.41L750.22 316.8L749.91 315.96L745.9 314.68L743.65 314.23L743.41 314.4H743.08L733.83 312.83L731.59 309.37L730.97 308.72L727.95 307.16L723.79 306.56L723.59 308.01L720.56 303.53L722.46 302.32L720.26 299.65L722.29 297.75L723.48 296.95L732.07 294.76L735.75 294.79L736.32 295.05L737.05 295.61L740.38 296.35L741.84 296.5L746.72 296.06L747.25 295.79L747.65 295.34L748.91 289.47L749.15 289.62L749.82 289.61L752.67 288.26L753.43 288.08L754.65 287.16L755.78 285.92L756.47 285.85L756.62 286.03L757.94 286.38L758.91 287.06L759.8 287.11L760.59 287.51L761.45 287.42L762.23 287.59L762.89 287.91L763.15 289.08L763.05 289.73L762.23 291.25L762.24 291.47L762.42 291.69L762.57 291.67L763.03 290.95L763.26 290.9L763.5 290.87L763.97 291.11L764.39 291.5L765.71 293.76L766.29 294.45L766.49 296.45L767.26 297L768.46 297.35L769.79 298L771.36 298.58L771.91 298.38L773.73 298.67L774.67 298.27L775.59 298.08L776.27 298.29L778.48 297.73L779.2 297.75L780.02 298.2L781.54 299.87L781.92 300.92L782.09 301.07L782.75 301.23L783.26 301.19L783.91 300.94L784.1 300.64L784.74 300.31L785.14 299.83L785.72 299.81L786.07 299.6L785.92 299.06L785.34 298.66L784.99 298.17L785.42 296.75L785.65 296.52L786.08 296.53L787.09 297.99L787.99 298.19L789.12 298.95L790.07 298.43L791.57 298.5L792 298.88L792.23 299.85L791.8 301.59L791.37 302.2L790.92 302.51L788.04 303.72L786.38 303.96L785.75 304.83L784.59 305.63L783.19 306.41L782.38 306.58L782.33 306.81L781.46 307.01L780.12 307.75L779.12 308.71L777.58 309.21L776.45 309.06L775.66 309.17L775.35 309.53L775.3 309.85L775.44 310.29L775.82 310.75L775.85 311.09L775.11 311.7L775.01 312.12L775.19 314.86L775.12 315.93L774.47 316.14L773.95 315.84L772.99 314.86L771.49 314.52L771.17 314.89L771.12 315.65L770.25 316.28L770.11 316.52L769.9 317.92L769.32 318.99L768.65 319.15L768.23 319.11L766.84 317.99L765.37 317.92L764.68 317.54L763.77 316.67L763.26 316.49L762.58 316.78L762.37 316.74L761 315.07L760.45 314.07L759.06 312.9L758.66 312.71L757.68 313.14L756.58 313.15L756.18 313.69L756.33 313.97L757.45 314.35L757.77 314.66L758.23 315.69L759.28 316.01L759.69 316.57L759.65 317.12L759.3 317.52L758.27 317.62L758 317.81L757.83 318.32L757.97 318.77L759.05 318.66L759.31 319.03L759.54 320.5L760.03 321.03L760.27 321.78L759.13 324.45L759.41 325.28L759.34 325.92L759.17 326.08L758.87 326.14L757.39 325.76L756.94 325.49L755.39 323.89L754.74 323.43L754.45 323.33L753.65 323.63L753.33 323.42L752.83 322.71L752.54 322.5L751.64 322.51L751.37 322.4L751.19 322L751.52 320.87L751.46 320.62L751.01 320.35L750.33 320.41Z" fill="#E89BBD"/>
<path d="M421.26 383.37L417.49 386.96L414.14 389.18L413.57 389.29L409.17 394L408.82 395.03L408.97 395.89L409.68 397.09L410.51 397.97L411.33 399.14L411.56 399.65L411.28 400.26L393.16 406.9L387.55 413.13L385.42 410.83L385.01 410.8L383.83 411.1L381.73 412.31L380.73 412.57L379.68 412.59L378.3 412.41L377.45 411.99L374.5 409.56L371.63 407.56L364.84 402.34L363.02 401.17L358.34 397.73L357.03 396.44L355.88 395.05L355.59 394.42L355.18 394.05L354.4 392.82L350.83 389.36L348.81 387.21L344.84 384.4L340.46 381.78L336.01 378.63L331.77 375.85L321.51 368.55L314.55 363.78L300.22 353.25L299.04 352.15L298.13 350.86L297.97 350.33L297.77 349.43L297.83 348.88L297.54 348.18L297.41 346.43L296 344.36L296.02 343.71L296.71 342.52L296.79 339.89L296.41 338.88L296.27 337.65L295.68 335.61L295.62 334.47L295.39 333.7L295.43 333.1L295.79 332.19L295.76 331.18L295.01 329.84L293.85 328.79L293.13 327.73L293.07 327.22L293.57 325.68L293.86 324.21L293.82 323.9L292.5 323.38L291.18 322.54L289.86 321.09L288.59 320.52L287.27 319.65L286.87 319.09L293.15 311.48L297.74 306.35L298.53 302.55L298.56 301.01L297.88 299.86L291.97 293.18L288.73 289.85L299.67 284.79L285.89 265.61L286.45 265.33L290.12 264.41L303.67 261.2L304.72 261.12L308.06 267.82L309.45 269.88L311.6 272.2L313.99 273.75L317.53 275.65L319.1 277.23L321.18 281.58L322.58 286.73L323.15 288.12L324.03 288.03L324.48 287.66L326.52 287.61L329.68 288.52L335.06 290.83L343.54 295.43L353.37 301.13L355.49 302.8L356.05 303.85L356.39 305.34L355.91 307.57L359.31 307.48L361.95 307.25L362.5 307.06L367.88 294.87L368.92 293.78L371.11 292.61L371.99 292.76L373.66 294.69L373.76 302.3L389.95 304.19L390.14 303.7L390.96 299.21L391.53 299.02L396.55 298.44L400.34 298.38L402.61 298L403.74 295.32L404.46 293.22L404.91 293.03L405.88 293.25L406.67 296.08L408.81 306.2L409.95 307.3L410.75 307.72L411.78 308.06L420.41 309.25L426.34 309.88L434.31 311.02L432.91 320.28L428.92 323.09L428.75 324.12L427.3 328.25L423.95 332.39L423.31 333L422.37 333.38L418.52 333.15L415.62 332.61L413.61 331.62L412.79 330.83L410.79 329.53L408.73 329.41L407.62 329.89L407.26 330.51L407.62 333.83L407.17 338.19L405.88 343.9L403.35 348.68L401.22 351.15L396.82 353.82L395.93 354.15L394.51 356.87L398.78 362.66L399.97 363.81L407.03 366.48L408.11 366.54L411.31 365.76L416.22 369.45L420.61 378.84L420.97 379.99L421.26 383.37Z" fill="#BACE6B"/>
<path d="M673.77 331.36L673.87 330.7L673.64 330.15L672.9 329.49L669.99 328.18L668.36 327.85L667.36 327.45H667.04L666.14 327.88L665.71 327.85L665.25 327.64L664.92 327.27L664.46 326.16L664.17 325.85L663.89 325.75L663.74 325.01L662.83 323.24L662.77 322.63L662.9 322.43L663.71 322.21L664.71 321.4L665.9 321.18L667 320.61L669.05 319.89H669.85L670.32 319.48L670.44 318.67L670.88 318.23L671.02 317.34L671.21 316.94L671.61 316.72L672.2 316.64L672.97 316.71L673.45 316.35L674.17 316.33L674.6 316.17L675.47 315.06L676.58 312.84L676.94 312.46L677.59 312.28L678.27 311.55L678.78 311.38L678.93 311.1L679.34 311.02L679.75 310.52L680.72 310.3L681.12 310.58L681.44 310.61L681.49 309.95L681.31 308.96L681.62 308.73L681.9 308.98L682.56 308.94L683 308.36L683.3 307.36L683.88 306.83L683.94 306.57L684.28 306.48L684.54 306.22L689.41 304.97L692.78 304.36L699.54 304.26V304.48L699.17 305L697.81 306.66L698.64 308.63L700.51 310.49L706.1 313.22L706.5 313.3L707.25 312.88L710.27 310.03L711.03 309.04L711.77 307.59L713.01 306.79L717.12 304.56L720.56 303.53L723.59 308.01L723.79 306.56L727.95 307.16L730.97 308.72L731.59 309.37L733.83 312.83L743.08 314.4H743.41L743.65 314.23L745.9 314.68L749.91 315.96L750.22 316.8L750.33 320.41L749.84 320.45L748.77 320.19L748.38 320.27L747.87 321.65L747.57 322.15L746.94 322.75L746.48 322.99L746.11 323.06L745.52 322.86L744.63 322.27L744.17 323.31L744.62 325.02L744.48 325.36L743.84 326.07L743.77 326.64L743.48 327.04L742.11 327.45L741.07 328.79L740.56 329.17L739.76 330.3L738.57 330.82L737.64 331.68L737.52 331.94L737.73 332.44L738.71 332.67L739.69 333.56L739.62 334.05L738.51 335.08L738.05 336.16L737.76 336.48L737.1 336.81L736.48 336.79L735.21 335.87L733.19 335.4L732.71 335.79L732.58 336.27L732.63 336.54L733.37 337.67L733.39 338.2L732.64 338.7L732.1 338.67L729.61 340.26L728.29 340.68L727.37 341.34L727.02 341.4L726.77 341.26L726.31 340.41L725.88 339.9L725.64 339.83L725.28 339.43L725.13 339.07L725.3 337.17L725.11 336.36L724.43 335.45L723.91 335.09L723.14 335.01L721.91 335.13L721.8 335.97L722.04 337.4L721.83 338.35L721.91 338.91L721.79 339.11L721.5 339.08L720.69 338.12H719.69L719.14 338.31L718.22 337.73L716.45 336.94L716.23 336.4L716.42 335.05L716.18 334.53L714.88 334.5L713.34 334.1L712.71 333.6L711.62 332.37L711.21 332.1L710.72 331.95L710.22 332.17L709.6 332.23L709.44 331.92L709.53 331.53L709.21 331.28L707.68 331.92L706.93 332.02L706.66 331.92L706.51 331.65L706.49 330.65L704.95 330.76L703.94 330.42L702.94 330.33L702.11 330.44L700.73 330.9L699.75 330.88L699.14 331.09L696.58 332.87L694.63 333.22L692.56 334.12L692.11 334.41L691.97 334.68L692.28 335.6L692.17 336.57L689.79 336.64L687.84 336.99L687.57 336.9L685.87 338.16L683.4 339.26L681.82 339.59L680.42 339.71L677.29 340.4L676.46 340.06L675.28 337.92L674.96 337.04L674.24 336.65L673.71 335.71L673.84 335.6L673.91 334.32L674.28 333.33L673.73 331.58L673.77 331.36Z" fill="#BACE6B"/>
<path d="M580.63 374.7L580.15 374.95L579.94 376.49L579.62 377.51L578.8 378.24L577.72 377.86L576.57 378.12L573.61 377.65L571.75 378.46L571.36 378.34L570.57 377.58L570.06 377.34L568.64 377.02L566.87 376.81L565.61 376.95L564.68 377.21L563.94 377.08L562.92 376.49L562.18 376.59L559.95 376.43L558.98 375.95L558.24 375.76L557.15 375.85L556.55 375.7L555.45 374.85L554.54 374.48L553.17 374.4L552.25 374.5L550.38 373.66L549.42 372.78L548.04 372.7L545.61 371.05L544.91 371.44L543.7 371.76L541.77 370.93L541.37 370.92L540.49 371.94L539.4 372.32L538.76 372.77L537.82 374.3L537.24 374.46L535.81 374.49L531.83 375.98L531.71 376.66L531.91 378.27L531.5 378.78L529.28 378.23L528.82 378.34L528.47 379.14L528.45 380.45L528.77 380.96L524.24 377.14L523.21 376.09L522.56 375.13L522.35 374.18L522.33 370.02L522.43 369.65L525.65 364.41L526.41 363.5L527.1 362.96L529.26 361.93L530.8 361.55L532.1 361.4L532.02 360.38L530.95 354.42L530.74 354.18L518.87 351.65L514.06 351.25L511.94 350.45L506.11 346.52L505.76 342.81L505.86 342.46L507.1 342.17L507.34 342.01L507.79 340.67L507.86 339.86L506.42 337.05L504.56 335.39L503.72 331.29L503.62 327.36L503.76 326.59L504.59 324.76L504.58 323.66L503.62 321.48L499.01 321.38L491.22 320.46L491.95 318.67L496.38 310.08L499.5 304.76L499.78 304.02L498.21 297.16L497.98 296.63L497.73 296.4L493.46 295.35L492.51 294.77L491.79 293.5L490.66 282.86L497.37 282.64L497.66 279.71L497.88 279.75L498.4 274.99L515.8 276.3L520.44 276.82L523.16 276.83L524.01 277.39L524.88 277.52L526.13 277.11L527.4 276.91L542.81 277.38L544.22 278.67L545.09 278.9L547.14 281.39L550.46 284.47L551.93 283.17L552.77 284.36L555.82 282.38L557.2 283.67L557.79 283.41L558.58 283.88L556.11 284.41L554.7 285.89L556.09 289.34L554.61 290.81L554.69 296.03L550.62 296.18L549.89 298.46L551.33 300.46L553.77 301.14L559.54 304.54L563.13 308.57L566.92 309.91L567.36 310.29L567.19 313.13L566.85 313.74L564.99 313.64L562.89 314.18L562.41 319.07L562.57 319.34L564.68 318.32L565.01 318.22L565.17 318.42L565.02 319.19L564.25 321.19L559.3 332.23L559.1 333.75L559.25 334.71L559.59 335.61L560.25 336.58L560.57 336.63L567.12 336.94L571.69 336.77L575.71 335.95L577.99 335.16L585.12 333.52L585.43 334.2L584.42 340.61L582.87 340.89L582.78 341.03L579.89 341.87L579.65 342.47L580.51 343.27L583.13 344.81L584.36 344.78L586.51 344.33L587.82 343.77L590.69 342.96L591.92 342.41L595.35 341.52L597.03 341.31L600.18 341.2L601.02 341.85L601.43 343.13L601.88 345.51L601.56 346.17L600.81 346.23L599.28 345.87L598.38 345.86L597.63 345.89L596.11 346.24L594.94 347.12L594.73 348.16L594.58 348.28L594.12 348.02L593.82 346.73L593.09 345.63L592.44 345.53L591.86 345.73L591.62 346.01L591.59 346.54L591.94 347.11L592.88 348.05L592.93 348.68L592.52 350.03L592.55 350.33L594.05 351.73L596.66 354.97L597.2 356.07L597.24 356.82L597.04 357.51L596.33 358.23L595.52 358.33L594.9 358.02L594.3 357.08L594.23 355.3L592.88 352.09L592.16 351.21L591.76 351.14L591.29 351.36L591.17 351.76L591.25 352.86L592.29 354.84L593.1 356.76L593.13 357.45L592.77 358.25L592.41 358.52L591.49 358.73L591.19 359.12L590.92 360.55L590.68 360.77L590.22 360.88L589.66 360.46L589.35 359.19L588.57 358.3L588.11 358.17L586.64 359.4L586.13 359.1L584.93 358.95L584.84 360.1L585.14 361.77L584.82 363.08L584.33 363.93L584.08 364.85L583.78 365.41L583.14 365.68L582.51 365.72L582.09 366.23L582.36 366.87L584.24 369.55L583.97 371.27L581.6 373.95L580.63 374.7Z" fill="#F8A758"/>
<path d="M749.31 281.15L748.81 280.31L748.35 280.02L747.9 279.95L747.45 280.19L746.4 279.84L745.64 279.81L743.76 281.17L743.41 281.25L742.73 280.95L740.99 279.83L739.85 279.52L738.63 279.38L737.47 280.17L737.01 279.95L736.45 279.9L734.83 279.25L734.51 278.84L734.53 277.96L733.97 277.9L733.6 277.7L733.53 277.49L734.17 275.49L735.09 273.88L735.87 273.08L736.34 272.26L736.9 270.91L736.85 270.66L735.77 270.08L734.92 269.05L734.64 268.4L734.77 267.1L734.63 266.73L734.25 266.45L733.84 266.69L733.5 267.25L732.69 267.42L732.44 267.25L732.38 267.06L732.64 265.76L732.02 264.7L730.62 263.35L729.57 261.14L729.2 261.04L729.06 261.16L728.95 262.85L728.78 263.11L728.47 263.18L728.26 262.77L728.16 262.09L727.85 261.82L727.47 261.79L726.84 262.24L726.72 262.64L727.13 263.3L727.07 263.86L726.8 264.07L726.38 263.81L725.97 263.1L725.87 262.64L725.96 262.21L726.8 261.11L727.26 260.28L727.33 259.81L727.09 258.4L727.22 258.1L727.16 257.36L727.59 256.46L727.24 255.85L726.1 255.8L725.74 255.9L724.97 256.62L724.21 257.98L723.77 258.48L722.51 258.91L722.27 259.26L722.32 259.68L722.64 259.92L723.78 260.03L724.35 260.26L724.85 261.04L724.98 261.72L724.64 262.94L724.2 263.75L724.16 264.16L724.96 265.39L724.67 266.05L724.01 266.77L723.65 267.47L723.38 268.45L723.16 268.46L722.8 268.21L722.54 268.46L722.22 269.18L721.62 269.67L721.45 270.25L721.28 270.29L721.03 271.24L720.65 271.56L720.05 271.4L719.44 270.71L719.04 270.49L718.16 270.47L717.74 270.82L717.07 270.96L716.25 270.45L715.93 270.52L714.49 272.24L714.44 272.65L714.69 273.42L714.43 274.27V274.8L714.61 275.17L715.47 275.54L715.77 276.26L714.88 278.26L714.56 280.25L713.85 281.86L713.82 282.23L712.79 283.35L712.26 283.39L712 283.22L711.85 282.93L711.62 281.16L711.39 280.67L710.6 279.84L710.21 279.65L709.67 279.66L709.16 279.96L708.81 280.37L708.58 281.78L708.18 282.54L707.38 283.29L706.87 283.41L706.49 283.3L706.35 283L706.57 280.61L706.31 279.18L706.05 278.76L705.1 278.13L704.8 278.09L704.18 278.38L704.05 278.78L704.09 279.32L703.78 279.55L703.5 279.49L703.07 278.43L702.75 278.42L702.4 278.72L701.93 279.44L701.45 279.42L701.19 279.57L700.36 280.45L699.86 280.74L699.46 280.77L698.25 280.34L697.84 279.97L697.23 278.95L696.43 278.76L695.2 277.96L694.61 277.99L691.95 279.8L691.39 279.6L690.85 278.37L689.93 277.51L689.07 276.97L688.49 276.12L687.96 275.62L687.69 275.58L686.98 275.9L686.51 276.58L685.68 278.64L685.38 279.08L685.05 279.24L684.19 278.89L683.69 278.28L683.47 277.38L683.5 276.29L684.24 275.34L684.42 274.74L684.32 274.39L683.7 273.48L683.45 272.74L683.38 270.95L683.8 270.03L684.05 268.87L683.56 266.82L681.01 262.74L680.59 261.57L680.4 261.41L679.19 261.07L678.88 261.1L677.74 261.95L676.51 261.89L674.99 262.37L674.01 263.21L673.6 263.95L671.92 265.34H669.84L669.34 264.8L668.66 266.73L665.69 270.84L666.36 278.14L668.27 280.76L668.93 282.1L669.17 284.43L669.2 286.18L669.05 287.06L669.25 287.48L669.7 287.46L670.43 287.86L670.7 288.54L671.8 289.43L671.87 290.05L672.19 290.29L673.07 291.48L673.75 291.5L674.3 292.87L675.31 294.12L675.7 295.01L676.81 296.66L677.27 297.84L677.54 297.85L677.66 298.22L678.63 299.05L679.19 300.42L680.02 300.73L680.55 301.2L681.28 302.19L680.8 302.57L680.63 302.48L680.34 302.66L680.42 302.98L680.23 303.27L679.86 303.37L679.29 303.12L678.82 301.91L678.45 303.15L678.49 303.86L678.81 304.5L679.64 304.26L680.87 304.36L681.72 304.81L681.44 304.99L682.34 305.03L682.77 305.26L683.77 306.11L683.99 306.6L684.33 306.51L684.59 306.25L689.46 305L692.84 304.39L699.59 304.29V304.51L699.22 305.03L697.86 306.69L698.69 308.66L700.57 310.51L706.15 313.24L706.55 313.32L707.31 312.9L710.33 310.05L711.09 309.05L711.84 307.6L713.07 306.81L717.18 304.58L720.62 303.55L722.52 302.34L720.32 299.67L722.35 297.78L723.55 296.98L732.14 294.79L735.81 294.82L736.39 295.07L737.12 295.63L740.45 296.38L741.91 296.53L746.79 296.09L747.32 295.82L747.72 295.36L748.98 289.5L748.56 289.24L748.11 288.66L748.27 288.33L749.53 288.03L750.06 287.62L750.53 286.6L750.08 285.78L749.31 281.15ZM678.85 295.84L675.67 291.53L674.45 290.63L673.44 290.6L673.25 289.92L673.52 289.45L674.25 288.89L673.98 289.27L675.18 289.78L676.69 291.55L678.42 293.9L679.06 295.48L678.85 295.84Z" fill="#EAC871"/>
<path d="M498.4 274.99L497.88 279.75L497.66 279.71L497.37 282.64L490.66 282.86L491.79 293.5L492.51 294.77L493.46 295.35L497.73 296.4L497.98 296.63L498.21 297.16L499.78 304.02L499.5 304.76L496.38 310.08L491.95 318.67L491.22 320.46L489.96 316.99L488.1 314.33L487.13 313.21L486.55 312.94L484.44 314.86L482.09 316.15L480.71 316.26L478.88 316.01L477.84 315.22L476.81 313.67L475.62 313.58L474.51 313.77L473.6 314.85L471.45 319.53L470.86 324.44L471.11 324.79L471.65 324.99L472.02 325.71L471.85 327.98L470.97 334.1L470.11 335.44L467.81 341.51L468.01 342.49L468.81 342.59L470.24 341.67L471.06 341.74L471.24 342.19L471.1 343.31L470.67 343.93L467.18 347.22L465.55 347.98L456.64 349.91L455.42 349.71L450.04 347.41L447.95 346.27L447.49 345.23L446.49 343.68L441.01 341.61L440 341.44L439.48 341.72L439.13 342.29L438.97 342.99L439.02 343.96L438.6 349.76L436.77 355.3L436.06 356.59L435.54 356.89L434.95 356.9L432.1 356.02L431.1 355.53L422.45 358.45L421.95 358.8L421.87 359.17L422.2 359.94L423.68 361.47L424.65 362.28L425.59 363.73L426.94 368.95L426.77 369.92L426.26 371.38L425.09 373.72L425.05 374.35L425.22 375.16L426.03 376.97L428.15 380.77L427.75 381.2L427.22 381.41L424.62 381.81L423.23 382.18L422.43 382.56L421.26 383.37L420.97 379.99L420.61 378.84L416.22 369.45L411.31 365.76L408.11 366.54L407.03 366.48L399.97 363.81L398.78 362.66L394.51 356.87L395.93 354.15L396.82 353.82L401.22 351.15L403.35 348.68L405.88 343.9L407.17 338.19L407.62 333.83L407.26 330.51L407.62 329.89L408.73 329.41L410.79 329.53L412.79 330.83L413.61 331.62L415.62 332.61L418.52 333.15L422.37 333.38L423.31 333L423.95 332.39L427.3 328.25L428.75 324.12L428.92 323.09L432.91 320.28L434.31 311.02L426.34 309.88L420.41 309.25L411.78 308.06L410.75 307.72L409.95 307.3L408.81 306.2L406.67 296.08L405.88 293.25L404.91 293.03L404.46 293.22L403.74 295.32L402.61 298L400.34 298.38L396.55 298.44L391.53 299.02L390.96 299.21L390.14 303.7L389.95 304.19L373.76 302.3L373.66 294.69L371.99 292.76L371.11 292.61L368.92 293.78L367.88 294.87L362.5 307.06L361.95 307.25L359.31 307.48L355.91 307.57L356.39 305.34L356.05 303.85L355.49 302.8L353.37 301.13L343.54 295.43L335.06 290.83L329.68 288.52L326.52 287.61L324.48 287.66L324.03 288.03L323.15 288.12L322.58 286.73L321.18 281.58L319.1 277.23L317.53 275.65L313.99 273.75L311.6 272.2L309.45 269.88L308.06 267.82L304.72 261.12L303.67 261.2L290.12 264.41L286.45 265.33L285.89 265.61L264.97 236.94L277.82 229.84L271.08 217.69L272.34 201.92L300 149.71L284.56 145.53L278.71 135.04L321.07 126.79L341.52 123.18L345 123.86L348.01 124.22L357.71 125.27L363.64 125.65L366.04 126.07L380.22 127.16L393.86 127.83L394.06 127.68L394.91 127.64L405.43 122.47L412.43 119.41L416.81 117.22L418.87 116.71L419.95 116.6L421.62 116.67L422.45 116.99L423.21 117.57L424.2 118.71L429.93 131.33L431.95 133.24L435.55 136.98L446.43 146.66L447.93 152.73L454.57 174.12L467.14 168.2L467.49 199.5L467.44 206.71L466.86 206.53L464.44 205.3H464.19L464.09 211.9L463.18 213L462.88 229.64L462.95 231.79L487.09 234.71L490.57 274.41L498.4 274.99Z" fill="#FFEB64"/>
<path d="M421.26 383.37L422.43 382.56L423.23 382.18L424.62 381.81L427.22 381.41L427.75 381.2L428.15 380.77L428.84 380.93L446.39 381.46L447.88 381.28L449.19 380.73L450.62 379.66L450.81 379.39L450.85 379.06L455.16 379.94L458.46 383.75L461.23 388.4L461.32 389.89L461.54 390.1L462.26 390.35L465.34 391.13L466.87 391.09L469.08 389.71L472.35 388.04L479.9 386.17L480.53 386.33L481.7 387.08L483.35 388.52L484.99 389.67L485.68 390L485.98 389.99L489.62 388.43L490.44 387.47L491.54 385.69L492.37 384.74L493.18 384.46L494.37 384.4L502.94 385.93L503.57 386.6L504.06 387.92L503.95 389.18L503.49 390.88L503.55 391.46L503.88 391.94L504.81 392.47L506.7 392.62L510.58 392.38L511.4 392.17L511.82 391.69L511.93 391.34L511.86 389.56L512.29 389.08L513.17 389.03L517.63 390.3L520.19 391.39L524.03 392.58L525.68 392.9L526.68 392.67L527.06 394.25L528.45 396.66L529.18 397.41L530.14 397.94L531.9 398.31L532.52 398.72L533.37 399.01L534.17 399.03L535.2 398.81L536.28 399L537.3 399.47L537.95 401.14L538.52 401.37L540.11 401.45L540.39 401.74L540.38 402.31L540.03 402.82L539.82 405.32L540.26 406.58L540.39 408.63L540.78 409.19L539.98 410.01L539 410.59L535.01 410.82L534.15 411.08L533.64 411.33L532.97 411.9L532.52 412.74L532.46 413.14L533 416.28L534.02 418.38L534.4 418.84L534.55 419.36L534.68 423.56L533.34 427.86L532.8 427.68L531.39 426.25L530.39 425.93L528.96 425.86L527.82 426.19L527.37 426.53L526.78 427.17L525.97 428.47L524.78 430.69L515.89 439.57L515.17 442.92L515.01 444.44L514.64 445.84L514.19 446.71L511.77 449.14L509.94 450.42L506.4 452.27L494.82 464.37L494.39 465.62L493.35 469.89L493.62 470.79L491.23 468L490.18 467.33L488.7 466.72L485.51 466.37L482.88 467.19L482.31 467.25L481.05 466.92L479.82 465.85L477.03 464.21L475.2 462.14L473.91 459.81L473.44 459.51L471.54 459.4L468.04 458.37L467.41 457.97L466.91 457L465.74 456.6L464.87 456.47L464.11 455.67L463.64 455.5L462.27 455.57L461.44 455.3L460.54 454.7L458.63 452.74L457.73 452.5L456.66 452.51L455.69 452.78L454.96 454.18L454.4 454.11L454.26 454.21L454.1 454.85L453.73 455.02H453.2L448.52 454.06L438.59 450.14L436.64 449.02L430.23 444.89L428.38 443.4L425.68 440.88L418.07 433.28L417.49 432.89L414.76 431.64L411.26 430.31L408.32 428.94L406.59 427.68L405.98 427.02L397 421.47L394.28 419.57L388.74 414.44L387.55 413.13L393.16 406.9L411.28 400.26L411.56 399.65L411.33 399.14L410.51 397.97L409.68 397.09L408.97 395.89L408.82 395.03L409.17 394L413.57 389.29L414.14 389.18L417.49 386.96L421.26 383.37Z" fill="#89B8E4"/>
<path d="M157.43 23.7398L157.78 31.4598L155.77 37.2998L152.55 42.7398L149.73 48.7798L148.72 53.0098H146.51L144.7 53.2098L143.29 54.6198L142.69 57.2398L143.5 61.8698L144.71 64.4898L145.52 67.3098L143.1 68.1198L140.08 66.5098L137.66 67.9198L135.85 71.9498L133.43 76.1798L131.22 78.5998L128.2 76.7898L127.8 72.7598L127.6 66.5198L126.39 64.9098V61.4598H128L129.21 64.2798L131.02 65.2898L133.84 64.2798L135.25 61.2598V57.2298L136.26 54.0098L133.23 52.1998L130.01 49.5798L129.41 47.1598L131.22 45.1498L133.03 44.7498L135.04 45.7598L135.24 37.5098L138.06 37.1098L137.86 33.8898L135.44 33.2898L131.62 32.6898L130.21 33.6998L128.6 35.7098L126.39 36.7198L127.8 34.5098L130.62 29.2798L132.43 26.6598L131.42 23.6398L129.41 20.8198L130.01 16.9998L131.02 13.5798L134.42 7.14984L157.43 23.7398ZM119.11 0.339844L118.93 3.88984L117.32 7.10984L117.12 11.9398L113.3 15.3598L111.29 18.5798L111.09 24.4198L108.47 27.0398L107.26 32.6798L104.24 37.5098L102.23 42.9398L101.83 47.5698L102.03 53.6098L103.24 56.4298L105.25 60.0498L104.85 62.6698L101.83 71.1198L102.23 76.3498L104.44 81.5798L106.65 84.1998L109.67 85.6098L113.7 87.2198L116.72 87.4198L119.34 89.4298L121.35 90.0298L122.36 88.0198L123.97 87.6198L126.39 87.8198L128.2 87.0098L133.23 85.3998L135.85 84.1898L137.46 85.1998L138.27 88.8198L136.46 91.0298L133.63 92.8598L134.64 96.4798L136.85 97.4898L138.66 99.2998L143.89 100.11L146.51 102.32L149.53 102.72L155.57 103.32L160 103.52L163.62 101.31L166.04 102.72L167.25 103.73L171.07 102.92L173.08 102.32L176.7 103.53L181.73 102.52L186.56 100.91L193.61 98.0898L194.21 95.4698H197.63L198.84 93.6598L197.84 91.8598L199.45 88.4398L205.69 83.4098L210.32 78.7798L213.14 73.7498L213.95 69.9298L212.94 68.5198L211.33 67.1098L210.32 65.0998L214.2 64.7498L235.88 80.3998L238.09 87.4498L244.16 93.5798L250.55 101.29L250.84 101.93L251.48 102.52L254.01 105.53L259.71 112.54L276.54 133.44L278.17 135L278.72 135.05L284.57 145.55L300 149.73L272.34 201.93L271.08 217.7L277.82 229.85L264.97 236.95L285.89 265.62L299.68 284.8L288.74 289.86L286.19 291.07L285.54 290.88L285.27 290.66L280.71 283.25L279.21 280.48L271.21 271.67L268.13 269.76L264.61 267.9L255.66 265.84L252.62 265.82L252 266.02L250.61 266.79L249.83 267.68L248.66 269.98L248.15 271.85L247.43 272.62H245.94L243.69 271.18L243.44 270.02L243.07 269.15L241.05 266.88L240.34 266.27L239.6 265.98L237.44 265.62L236.03 265.04L230.07 260.5L221.84 253.19L220.27 251.69L216.92 247.79L211.75 242.96L211.06 242.65L210.39 242L210.02 241.54L206.94 236.15L206.53 233.69L206.49 231.06L206.32 230.48L205.93 230L200.65 228.88L196.39 230.27L194.49 231.11L191.82 236.34L191.6 235.81L191.1 235.21L190.55 234.82L188.13 233.99L187.32 233.48L185.54 231.29L185.37 231.33L185.04 230.98L184.16 231.18L182.9 229.94L182.71 229.13L182.9 228.79L183.46 228.34L186.28 228.14L186.63 227.69L186.43 226.89L185.92 226.16L185.51 225.19L185.29 224.25L185.13 221.98L183.87 220.34L183.84 219.67L184.02 219.19L185.11 218.61L185.53 218.8L186.38 218.9L186.84 218.79L187.29 218.36L187.54 217.97L187.56 217.33L187.07 216.14L186.59 215.58L185.6 214.98L183.85 214.74L183.27 214.5L182.45 213.79L181.62 212.67L180.94 211.31L180.31 210.75L178.34 210.11L177.3 209.27L176.99 209.82L176.53 211.25L176.17 211.6L175.67 211.61L173.87 211.06L173.19 210.71L172.73 210.73L172.19 210.52L170.22 210.48L168.65 210.85H167.14L165.8 211.01L158.39 211.11L157.82 210.66L157.09 209.26L156.44 208.96L155.56 207.9L151.52 203.87L151.48 203.47L151.94 202.23L151.83 201L148.42 196.55L147.95 196.09L146.84 195.43L146.44 195.37L145.35 195.67L144.39 196.44L143.82 196.68L141.22 196.51L140.52 196.29L138.94 195.43L136.67 194.77L136 194.45L134.27 192.95L130.08 188.35L125.27 183L122.19 179.1L121.71 178.67L121.68 179.52L121.37 180.7L121.47 181.25L122.36 182.14L122.4 182.43L122.23 182.95L121.89 183.17L121.47 183.16L120.92 182.85H120.29L119.78 183.48V183.65L120.47 184.22L120.73 184.64L120.31 186.82L120 187.31L119.51 187.61L118.36 187.24L115.71 187.74L114.64 187.8L113.32 187.16L112.11 186.92L110.92 186.35L109.43 185.94L106.53 185.34L105.63 185.37L104.21 185.94L103.17 186.54L100.84 188.48L100.22 188.54L99.81 188.89L99.63 189.58L99.95 190.34L101.81 191.69L104.18 193.02L105.17 193.4L106.52 193.65L106.97 194.19L109.64 200.39L110.94 202.44L111.51 203.12L111.7 204.06L111.66 205.27L112.1 205.67L112.63 205.54L115.78 207.52L116.74 208.31L116.87 209.02L116.36 210.06L115.99 210.32L115.56 210.34L113.45 209.84L111.58 210.22L111.39 209.55L111.51 207.53L111.4 206.48L110.59 203.62L109.88 202.28L108.99 201.29L107.74 200.45L102.89 199.2L102.09 199.25L99.91 200.38L98.61 200.86L98.42 200.76L98.23 200.04L97.31 199.39L97.02 199.02L96.75 197.82L95.9 197.07L94.94 196.89L93.51 197.2L92.52 197.88L91.99 197.87L91.72 198.16L91.32 199.99L91.03 200.74L90.71 200.61L89.97 199.75L89.53 199.64L88.86 199.86L88.64 200.25L88.36 201.8L88.7 202.58L89.59 203.4L90.03 204.12L90.36 205.2L90.34 205.74L89.97 206.79L90 208.2L89.76 209.31L89.88 210.86L89.68 212.47L89.5 213.07L89.16 213.46L88.69 213.62L87.84 213.59L86.18 212.9L85.74 213L85.46 213.52L85.12 214.72L85.82 215.92L86.26 217.02L86.07 217.44L85.2 217.56L82.14 217.04L79.55 217.93L77.78 218.86L77.04 219.04L76.44 219.02L74.82 218.03L72.95 217.66L70.66 217.48L65.49 217.76L63.53 218.49L61.01 219.73L58.82 221.33L57.56 222.42L56.44 224.03L56.03 224.9L55.35 226.49L54.28 229.82L53.67 230.67L52.54 231.77L51.83 232.2L50.46 232.71L48.3 233.35L47.57 233.79L46.71 234.58L45.79 236.5L45.48 238.54L45.03 240.37L45.08 243.12L45.38 245.8L45.24 248.53L45.8 250.9L46.2 251.89L46.58 252.39L46.56 252.63L46.92 252.79L47.45 253.82L47.69 254.97L47.78 255.77L47.58 256.99V259.33L48 262.47L48.3 263.46L48.68 264.18L50.53 266.82L51.44 266.84L53.39 266.24L53.82 266.64L53.86 267.16L53.54 267.87L53.14 268.27L52.61 268.6L50.63 269.29L49.79 270.08L49.33 270.96L49.29 272.46L48.97 273.13L48.48 273.67L47.93 273.96H46.61L44.81 273.52L40.85 273.18L36.7 272.59L29.95 272.17L26.18 272.09L20.3 271.41L16.81 271.15L14.93 271.16L9.75 270.69L0.33 270.3L0.25 37.7398L1.77 37.3498L3.2 36.7198L33.34 26.8698L33.36 26.7398L35.03 26.4498L35.37 26.0998L36.38 25.7598L49.52 21.5598L93.18 8.05984L99.83 5.83984L102.05 5.37984L119.11 0.339844Z" fill="#8EC79A"/>
<path d="M532.92 390.84L532.81 391.14L531.21 390.83L530.24 391.04L526.91 392.19L526.68 392.48V392.67L525.68 392.9L524.03 392.58L520.19 391.39L517.63 390.3L513.17 389.03L512.29 389.08L511.86 389.56L511.93 391.34L511.82 391.69L511.4 392.17L510.58 392.38L506.7 392.62L504.81 392.47L503.88 391.94L503.55 391.46L503.49 390.88L503.95 389.18L504.06 387.92L503.57 386.6L502.94 385.93L494.37 384.4L493.18 384.46L492.37 384.74L491.54 385.69L490.44 387.47L489.62 388.43L485.98 389.99L485.68 390L484.99 389.67L483.35 388.52L481.7 387.08L480.53 386.33L479.9 386.17L472.35 388.04L469.08 389.71L466.87 391.09L465.34 391.13L462.26 390.35L461.54 390.1L461.32 389.89L461.23 388.4L458.46 383.75L455.16 379.94L450.85 379.06L450.81 379.39L450.62 379.66L449.19 380.73L447.88 381.28L446.39 381.46L428.84 380.93L428.15 380.77L426.03 376.97L425.22 375.16L425.05 374.35L425.09 373.72L426.26 371.38L426.77 369.92L426.94 368.95L425.59 363.73L424.65 362.28L423.68 361.47L422.2 359.94L421.87 359.17L421.95 358.8L422.45 358.45L431.1 355.53L432.1 356.02L434.95 356.9L435.54 356.89L436.06 356.59L436.77 355.3L438.6 349.76L439.02 343.96L438.97 342.99L439.13 342.29L439.48 341.72L440 341.44L441.01 341.61L446.49 343.68L447.49 345.23L447.95 346.27L450.04 347.41L455.42 349.71L456.64 349.91L465.55 347.98L467.18 347.22L470.67 343.93L471.1 343.31L471.24 342.19L471.06 341.74L470.24 341.67L468.81 342.59L468.01 342.49L467.81 341.51L470.11 335.44L470.97 334.1L471.85 327.98L472.02 325.71L471.65 324.99L471.11 324.79L470.86 324.44L471.45 319.53L473.6 314.85L474.51 313.77L475.62 313.58L476.81 313.67L477.84 315.22L478.88 316.01L480.71 316.26L482.09 316.15L484.44 314.86L486.55 312.94L487.13 313.21L488.1 314.33L489.96 316.99L491.22 320.46L499.01 321.38L503.62 321.48L504.58 323.66L504.59 324.76L503.76 326.59L503.62 327.36L503.72 331.29L504.56 335.39L506.42 337.05L507.86 339.86L507.79 340.67L507.34 342.01L507.1 342.17L505.86 342.46L505.76 342.81L506.11 346.52L511.94 350.45L514.06 351.25L518.87 351.65L530.74 354.18L530.95 354.42L532.02 360.38L532.1 361.4L530.8 361.55L529.26 361.93L527.1 362.96L526.41 363.5L525.65 364.41L522.43 369.65L522.33 370.02L522.35 374.18L522.56 375.13L523.21 376.09L524.24 377.14L528.77 380.96L531 385.63L531.83 387.93L532.77 389.88L532.98 390.69L532.92 390.84Z" fill="#AC8FC7"/>
<path d="M596.13 337.8L594.52 338.77L593.23 339.1L590.84 338.43L589.86 338.87L584.42 340.61L585.43 334.2L585.12 333.52L577.99 335.16L575.71 335.95L571.69 336.77L567.12 336.94L560.57 336.63L560.25 336.58L559.59 335.61L559.25 334.71L559.1 333.75L559.3 332.23L564.25 321.19L565.02 319.19L565.17 318.42L565.01 318.22L564.68 318.32L562.57 319.34L562.41 319.07L562.89 314.18L564.99 313.64L566.85 313.74L567.19 313.13L567.36 310.29L571.01 313.4L572.9 312.9L574.81 314.47L574.27 315.61L579.14 317.04L579.95 315.92L582.35 316.1L586.66 314.37L585.82 312.28L583.41 310.99L582.28 307.7L579 303.17L579.87 295.72L578.87 293.19L579.73 292.29L578.85 290.9L575.23 290.67L575.22 289.37L580.14 289.68L580.46 290.28L582.82 288.81L582.8 289.05L583.11 289.14L583.31 290.34L583.98 290.59L584.78 290.22L585.72 290.43L586.09 290.81L585.95 291.14L584.51 291.69L584.32 292.04L584.29 292.6L584.83 293.66L585.23 293.33L590.09 298.85L593.56 302.32L598.48 306.76L603.19 310.67L603.81 310.75L606.84 314.98L606.34 319.68L605.48 325L604.47 329.96L604.49 331.02L604.63 331.64L605.13 332.69L604.88 337.42L603.77 337.07L601.2 337.05L597.84 337.4L596.13 337.8Z" fill="#E89BBD"/>
<path d="M573.27 459.47L572.24 463L572.1 464.23L569.8 466.65L568.16 469.75L568.23 471.32L567.76 472.43L567.85 473.22L567.5 474.11L565 475.28L560.95 475.98L560.14 477.42L556.98 484.17L555.83 485.83L554.46 486.81L552.17 489.78L551.12 492.21L549.85 494.64L548.26 496.17L547.07 500.05L547.02 502.61L547.28 506.62L546.72 513.28L546.01 515.71L545.33 516.15L544.74 515.04L543.24 513.84L542.5 513.62L541.12 513.77L540.7 513.71L539.84 512.95L538.84 512.36L538.23 512.45L536.86 513L536.19 513.54L535.8 514.04L535.1 514.13L534.68 513.48L534.26 512.11L533.52 511.39L532.7 510.99L532.03 511.13L531.46 511.51L529.59 513.23L528.24 513.69L527.09 514.37L525.83 514.48L523.99 514.95L523.03 515.98L521.53 516.61L520.99 516.41L520.13 515.64L519.96 514.11L519.68 513.62L518.91 513.25L518.54 512.38L518.27 512.11L517.3 511.73L516.85 511.39L516.15 511.54L515.69 511.42L514.17 510.57L513.71 509.86L514.07 508.33L513.75 507.49L512.02 506.63L510.66 505.22L510.23 504.96L508.3 504.24L506.42 504.37L502.84 505.96L501.26 505.77L500.44 505.84L498.21 506.6L496.26 506.11L495.31 506.12L494.21 506.49L492.61 506.12L491.16 506.35L489.99 506.23L488.2 506.3L486.89 506.84L486.49 504.83L486.66 504.17L487.09 503.55L487.95 502.92L489.08 502.34L492.12 501.43L492.42 500.7L492.43 499.95L492 498.85L487.44 493.31L487.18 491.82L487.74 486.2L487.45 484.67V484.07L487.9 480.96L488.64 479.17L489.37 478.05L490.14 477.29L490.68 476.02L491.24 475.29L493.52 473.96L493.95 473.56L494.19 472.73L494.16 471.84L493.62 470.79L493.35 469.89L494.39 465.62L494.82 464.37L506.4 452.27L509.94 450.42L511.77 449.14L514.19 446.71L514.64 445.84L515.01 444.44L515.17 442.92L515.89 439.57L524.78 430.69L525.97 428.47L526.78 427.17L527.37 426.53L527.82 426.19L528.96 425.86L530.39 425.93L531.39 426.25L532.8 427.68L533.34 427.86L534.68 423.56L534.55 419.36L534.4 418.84L534.02 418.38L533 416.28L532.46 413.14L532.52 412.74L532.97 411.9L533.64 411.33L534.15 411.08L535.01 410.82L539 410.59L539.98 410.01L540.78 409.19L541.17 409.72L541.85 410.01L542.76 409.69L543.38 409.93L544.42 409.21L546.47 409.02L547.82 409.84L549.29 409.98L550.34 408.63L552.39 408.56L553.43 408.01L553.88 408.02L554.99 409.18L556.01 409.43L557.85 408.44L559.1 408.58L560.34 409.4L561.21 411.24L561.52 412.27L564.21 414.37L564.3 415.17L564.16 416.41L563.81 416.63L564.11 418.79L562.85 419.44L562.26 420.34L561.23 420.66L558.73 421.06L558.38 421.62L560.91 425.3L560.55 425.97L558.96 426.16L557.69 427.38L558.11 428.86L558.98 430.8L558.97 431.25L558.5 431.81L558.17 437.12L560.59 440.33L561.59 441.14L561.22 442.26L560.29 443.71L560.04 444.72L560.49 444.73L561.97 444.08L562.43 444.09L564.1 445.03L565.51 447.43L565.72 448.22L565.8 449.58L566.02 449.81L567.36 450.29L568.81 451L569.81 451.69L571.78 454.22L571.8 454.6L572.52 455.92L573.61 457.41L573.6 458.2L573.27 459.47Z" fill="#FBD165"/>
<path d="M618.94 266.49L618.99 265.92L618.9 265.78H618.66L618.36 266.03L618.23 266.4L617.48 266.63L616.77 267.38L616.07 267.31L615.71 267.97L615.16 267.7L614.59 267.81L612.99 266.97L612.79 266.99L612.53 267.33L611.71 267.7L610.68 267.49L610.57 267.31H610.43L609.23 268.63L609.13 269.48L608.68 270.73L608.54 271.6L608.42 273.06L608.51 273.4L609.44 273.62L609.73 273.83L610.06 273.65L610.54 273.9L610.86 274.74L611.02 274.79L611.38 274.56L611.55 274.81L612.24 274.94L612.81 274.88L612.82 274.4L613.9 273.53L614.99 273.62L615.71 273.85L615.55 274.26L615.98 275.2L616.35 275.45L616.98 275.36L618.03 274.31L618.41 273.44L618.34 272.26L617.96 271.53L617.67 271.26L618.15 270.5L618.49 270.25L618.36 269.91L618.41 269.43L618.7 268.75L618.85 268.63L619.25 268.68L619.16 268.02L619.44 267.75L619.56 267.27L619.45 266.95L619.21 266.81L618.94 266.49Z" fill="white"/>
<path d="M705.74 216.13L705.59 215.75L704.94 215.24L704.15 214.86L700.82 211.86L699.88 211.32L698.13 211.11L696.91 210.41L696.45 210.39L695.59 210.6L694.45 211.1L693.2 212.26L692.52 212.29L691.58 211.95L691.16 211.99L689.39 214.23L688.37 214.92L687.41 215.35L686.23 216.24L685.53 216.26L684.47 215.25L683.95 215.41L683.37 215.97L682.7 216.7L681.86 218.08L681.04 218.74L680.49 219.64L679.51 220.42L678.76 221.51L678.61 222.77L677.7 224.57L676.6 227.56L676.65 227.76L676.43 228.24L675.69 228.5L675.27 228.48L674.04 227.35L673.29 227.14L673.14 226.51L673.25 224.9L672.7 223.99L670.16 222.6L667.47 220.23L667.1 220.07L666.41 220.21L666.04 220.67L665.74 222.79L665.52 223.16L664.55 224.03L664.25 224.72L662.67 225.68L662.36 226.18L662.49 227.35L662.83 228.74L662.75 229.82L661.71 230.56L660.75 230.87L660.26 231.42L659.72 231.4L658.56 231.95L657.67 233.25L656.6 234.15L656.16 234.91L655.42 236.92L654.83 237.93L651.64 239.53L650.3 240.49L649.57 242.63L649.25 242.93L648.92 243.05L648.56 242.93L648.4 242.64L648.45 242.08L648.07 241.41L647.68 241.34L647 241.54L646.74 241.85L645.09 245.84L642.16 247.04L640.96 246L640.22 245.67H639.72L638.05 246.72L636.01 247.05L635.76 246.92L634.92 247.05L634.61 247.25L634.41 247.69L633.88 248.22L633.2 248.55L630.46 249.2L629.94 249.43L628.72 250.57L628.43 251.08L627.48 251.79L626.18 253.18L625.78 253.72L625.28 255.28L625.05 255.56L624.31 255.94L623.09 256.29L622.71 256.23L622.38 256.35L620.7 257.78L620.03 258.88L620.05 259.4L620.38 259.94L621.55 260.7L621.21 261.71L620.8 261.92L618.59 261.57L618.06 261.8L617.23 261.84L615.92 262.19L615.45 262.17L614.45 261.59L613.89 261.45L612.79 261.58L612.43 261.46L610.93 261.78L609.78 262.47L609.14 264.37L608.7 264.87L606.47 266.13L605.33 268.97L604.67 269.43L604.16 269.37L603.57 268.79L603.28 268.67L602.77 268.83L600.79 271.9L600.6 274.61L600.37 274.98L598.98 276.15L598.68 277.95L598.47 278.09L597.62 277.94L596.94 278.4L596.29 279.26L594.88 280.63L593.35 282.65L592.61 283.8L592.13 284.9L590.47 286.99L589.75 288.66L589.6 290.17L589.43 290.52L588.1 291.73L586.27 292.45L585.23 293.31L590.09 298.83L593.56 302.3L598.48 306.74L603.19 310.65L603.81 310.73L606.84 314.96L606.34 319.66L605.48 324.98L604.47 329.94L604.48 331L604.62 331.62L605.12 332.68L604.87 337.41L607.42 337.63L608.06 337.58L609.11 337.95L610.2 337.86L610.97 337.61L612.27 337.92L614.23 337.96L615.35 338.58L615.83 338.18L614.99 336.06L614.58 335.64L613.2 335.37L612.79 334.95L613.03 334.1L612.68 333.52L612.86 332.9L614.61 333.14L615.44 333.08L616.57 332.01L616.58 331.1L616.91 330.55L616.89 329.34L615.85 328.51L615.43 328.01L615.44 327.18L615.15 326.37L614.75 326.02L614.99 325.17L614.52 324.98L613.91 322.91L613.49 322.41L613.5 321.58L613.85 321.17L613.89 320.41L613.23 319.84L611.89 317.99L611.82 317.66L612.09 317.02L613.65 315.97L615.47 315.73L616.34 315.9L616.64 315.82L616.9 315.55L616.87 315.37L617.27 314.62L617.75 314.39L618.01 313.12L617.45 311.89L617.11 310.76L617.32 307.25L617.38 306.93L617.71 306.54L617.91 305.59L619.75 303L621.39 302.8L622.05 303.13L624.58 303.83L625.79 303.98L626.54 304.72L627.39 306.43L627.64 307.62L628.19 308.4L629.45 309.3L630.18 310.18L630.87 310.29L631.27 310.5L631.77 311.8L632.07 312.21L632.73 312.36L634.35 312.25L635.28 311.66L636.68 308.64L637.13 308.24L637.84 308.03L639.27 308.44L639.57 308.41L640.51 307.4L641.62 306.74L642.05 306.73L643.64 307.71L643.85 307.72L645.03 306.6L645.79 306.11L647.82 305.82L648.65 305.46L649.71 304.56L651.14 304L653.52 301.68L653.83 301.24L654.11 300.37L654.6 299.78L655.19 299.67L656.22 300.08L657.36 300.26L658.82 299.32L659.7 298.93L660.42 297.91L662.06 296.92L663.26 296.89L663.94 296.66L664.31 296.3L664.82 295.29L664.83 294.93L664.54 294L664.69 293.28L665.37 292.46L665.4 291.7L665.7 291.17L665.42 289.89L665.53 289.43L665.91 289.15L666.31 288.21L666.86 287.61L668.16 287.09L669.19 287.34L668.99 286.92L669.14 286.04L669.11 284.29L668.87 281.96L668.21 280.62L666.3 278L665.63 270.7L668.6 266.59L669.28 264.66L668.79 263.65L668.31 263.09L667.46 262.53L666.25 261.08L665.08 260.96L664.58 260.44L663.95 258.97L663.55 258.7L662.24 258.14L661.17 257.96L660.2 258.02L659.68 258.3L658.86 258.4L657.92 258.16L656.67 258.25L656.04 257.88L655.88 257.51L655.71 256.27L655.79 254.3L656.07 253.56L656.48 252.98L657.75 252.44L658.44 252.32L659.72 252.43L661.38 250.89L662.68 250.94L663.53 250.54L665.04 249.08L665.62 248.18L665.92 247.95L667.99 246.82L668.53 246.66L670.19 245.53L670.86 244.19L670.95 241.98L671.19 241.49L671.81 240.9L673.05 240.34L675.22 238.82L675.55 237.61L676.67 236.81L677.04 236.39L677.78 234.86L678.83 233.78L680.02 233.21L680.67 233.16L681.55 233.48L681.96 233.47L682.13 233.28L682.3 232.46L682.52 232.26L683.2 232.72L684.24 233.08L685.12 233.09L685.55 232.94L686.44 232.04L686.74 231.53L686.9 229.71L685.99 228.13L686.33 227.23L686.98 226.57L687.1 225.84L687.27 225.55L687.87 225.26H688.67L690.54 226.3L691.35 226.5H692.12L693.17 225.98L694.46 224.88L695.14 224.58L696.9 222.77L697.71 222.46L700.39 219.9L701.47 219.49L702.29 219.46L703.56 219.77L703.96 219.15L704.66 218.61L705.11 218.43L705.31 218.15L705.41 216.58L705.74 216.13ZM619.52 267.56L619.16 268.02L619.25 268.68L618.86 268.63L618.7 268.74L618.41 269.42L618.36 269.9L618.5 270.24L618.16 270.49L617.68 271.24L618.25 271.99L618.42 272.54V273.43L618.27 273.98L617.32 275.12L616.99 275.35L616.35 275.44L615.99 275.19L615.56 274.26L615.72 273.85L615 273.62L613.92 273.53L612.84 274.4L612.82 274.88L612.25 274.95L611.56 274.81L611.39 274.56L611.03 274.79L610.87 274.74L610.54 273.9L610.06 273.65L609.73 273.83L609.44 273.62L608.51 273.39L608.42 273.05L608.54 271.59L608.68 270.72L609.13 269.47L609.23 268.63L610.43 267.31H610.57L610.67 267.49L611.7 267.7L612.53 267.33L612.79 266.99L613 266.97L614.6 267.81L615.17 267.7L615.72 267.97L616.08 267.31L616.79 267.38L617.49 266.63L618.09 266.52L618.47 265.9L618.92 265.79L618.96 266.5L619.47 266.96L619.52 267.56Z" fill="#AC8FC7"/>
<path d="M282.54 312.33L281.28 309.47L280.76 308.72L280.07 308.11L279.77 307.3L279.61 304.53L279.15 303.79L278.89 302.76L277.67 300.72L277.58 299.5L277.74 298.32L277.67 296.34L277.52 295.86L277.27 293.01L277.5 291.39L277.28 290.99L276.77 290.78L276.59 290.06L276.61 289.42L276.32 288.61L275.58 287.67L274.11 286.89L273.54 286.78L273.09 286.52L272.79 285.96L272.98 285.02L272.61 283.97L272.14 283.1L270.92 282.37L269.04 280.39L267.91 280.05L266.42 279.04L264.39 276.63L263.91 276.33L262.64 276.2L261.98 275.97L261.49 275.63L261.08 275.25L260.8 274.3L260.42 273.58L259.57 272.94L259.1 272.93L257.8 273.5L256.03 273.36L255.29 273.14L253.68 272.24L251.92 271.95L251.4 271.99L250.93 272.3L250.11 273.77L250.17 276.42L249.72 277.22L249.44 278.79L249.01 279.7L248.66 280.09L248.17 280.42L247.12 280.58L246.97 280.72L245.3 280.91L244.97 280.81L243.65 280.86L243.45 280.73L243.17 280.83L242.47 280.67L239.37 279.19L237.24 276.96L236.9 276.81L234.89 276.99L233.57 275.43L228.66 275.21L228.24 275.42L227.2 275.35L225.02 275.67L222.44 275.55L220.76 275.86L216.83 275.87L212.07 276.17L211.19 276.12L208.59 276.55L207.64 276.49L206.92 276.25L203.68 274.31L200.77 271.71L194.66 267.54L191.29 265.61L190.13 264.57L189.56 263.33L189.54 262.64L189.7 261.85L189.74 258.86L190.02 257L190.4 256.19L192.54 254.19L192.79 253.58V252.41L192.52 251.52L191.39 249.5L190.24 247.97L188.39 245.08L188.01 243.58L188.53 242.34L189.09 240.09L189.33 239.95L189.64 239.97L190.54 240.46L191.54 240.44L193.52 241.16L194.63 241.69L195.91 242.74L197.1 242.71L197.88 243.34L198.7 243.61L198.96 243.21L199.69 243.22L199.95 243.06L199.98 242.62L199.46 241.92L198.33 241.03L197.17 239.71L195.92 239.14L194.27 238.77L192.88 237.9L192.12 237.05L191.81 236.33L194.48 231.1L196.38 230.25L200.64 228.86L205.92 229.98L206.31 230.46L206.47 231.04L206.51 233.68L206.92 236.13L210 241.52L210.38 241.99L211.04 242.64L211.74 242.95L216.91 247.78L220.26 251.68L221.83 253.19L230.06 260.5L236.02 265.04L237.43 265.62L239.59 265.98L240.33 266.27L241.04 266.88L243.05 269.15L243.42 270.02L243.68 271.18L245.93 272.62H247.42L248.14 271.86L248.65 269.98L249.82 267.68L250.6 266.8L251.99 266.03L252.61 265.83L255.65 265.84L264.6 267.9L268.12 269.76L271.2 271.67L279.2 280.48L280.7 283.25L285.26 290.66L285.53 290.88L286.18 291.07L288.73 289.85L291.97 293.18L297.88 299.86L298.56 301.01L298.53 302.55L297.74 306.35L293.15 311.48L286.87 319.09L282.54 312.33Z" fill="#E89BBD"/>
</g>
<defs>
<clipPath id="clip0_356_2">
<rect width="792.487" height="516.878" fill="white"/>
</clipPath>
</defs>
</svg>
